<svg width="24" height="24" viewBox="0 0 24 24" fill="none" xmlns="http://www.w3.org/2000/svg">
<path d="M5.31891 14.5027L4.4835 17.6213L1.43011 17.6859C0.517594 15.9934 0 14.057 0 11.9992C0 10.0093 0.483938 8.13277 1.34175 6.48047H1.34241L4.06078 6.97884L5.25159 9.68091C5.00236 10.4075 4.86652 11.1875 4.86652 11.9992C4.86661 12.88 5.02617 13.724 5.31891 14.5027Z" fill="#FBBB00"/>
<path d="M23.7882 9.75781C23.9261 10.4837 23.9979 11.2334 23.9979 11.9996C23.9979 12.8587 23.9076 13.6967 23.7355 14.5051C23.1514 17.2558 21.625 19.6578 19.5105 21.3576L19.5098 21.3569L16.0859 21.1822L15.6013 18.1572C17.0043 17.3343 18.1008 16.0466 18.6784 14.5051H12.2617V9.75781H18.7721H23.7882Z" fill="#518EF8"/>
<path d="M19.5153 21.3577L19.516 21.3584C17.4595 23.0113 14.8472 24.0004 12.0035 24.0004C7.43359 24.0004 3.46042 21.4461 1.43359 17.6872L5.32239 14.5039C6.33578 17.2085 8.9448 19.1338 12.0035 19.1338C13.3182 19.1338 14.5499 18.7784 15.6068 18.158L19.5153 21.3577Z" fill="#28B446"/>
<path d="M19.6577 2.76262L15.7702 5.94525C14.6763 5.26153 13.3833 4.86656 11.9981 4.86656C8.87017 4.86656 6.21236 6.88017 5.24973 9.68175L1.3405 6.48131H1.33984C3.337 2.63077 7.36028 0 11.9981 0C14.9097 0 17.5794 1.03716 19.6577 2.76262Z" fill="#F14336"/>
</svg>
