<svg width="99" height="18" viewBox="0 0 99 18" fill="none" xmlns="http://www.w3.org/2000/svg">
<path d="M0.910156 17.8512C0.999785 17.7216 1.10121 17.5285 1.21442 17.274C1.32764 17.0196 1.41727 16.6969 1.48331 16.3082C1.57294 15.7404 1.672 15.102 1.7805 14.3929C1.889 13.6838 2.00457 12.9394 2.12251 12.162C2.24044 11.3845 2.35837 10.5883 2.4763 9.77318C2.59424 8.95807 2.70745 8.1571 2.81831 7.36555C2.92681 6.574 3.03295 5.81308 3.13437 5.08042C3.23579 4.34777 3.32778 3.67637 3.40797 3.06858C3.48817 2.46078 3.55657 1.93072 3.60846 1.48312C3.66035 1.03316 3.70045 0.69393 3.72403 0.467773H5.26895L12.9252 14.7651L20.5224 0.467773H21.6781L23.6736 14.9112C23.7302 15.3658 23.7915 15.7545 23.8552 16.0796C23.9189 16.4047 23.9849 16.6804 24.0509 16.9136C24.1146 17.1445 24.1783 17.3353 24.2396 17.4861C24.301 17.6368 24.3599 17.7593 24.4165 17.8559V17.9007H21.3503V17.8512C21.3904 17.7617 21.4305 17.6156 21.4658 17.413C21.5036 17.2104 21.5201 16.9678 21.5201 16.6827C21.5201 16.5767 21.5154 16.4707 21.5083 16.36C21.5012 16.2516 21.4871 16.1315 21.4729 16.0019L19.928 4.35484L12.7459 17.8512L11.9062 17.7546L4.67457 4.23469C4.39153 6.15467 4.14387 7.93094 3.9316 9.56116C3.84197 10.2585 3.75234 10.9534 3.66271 11.646C3.57308 12.3386 3.49524 12.9865 3.42448 13.5849C3.35372 14.1832 3.30183 14.7133 3.25938 15.1703C3.21928 15.6273 3.19805 15.9666 3.19805 16.1857C3.19805 16.4613 3.20513 16.7039 3.22164 16.916C3.23815 17.128 3.25466 17.3047 3.27117 17.4507C3.29476 17.6203 3.3207 17.7711 3.34429 17.9007H0.910156V17.8512Z" fill="#191919"/>
<path d="M41.2279 17.901V17.8515C41.2444 17.8115 41.2562 17.7502 41.2657 17.6701C41.2727 17.59 41.2775 17.517 41.2775 17.451C41.2775 17.199 41.2421 16.921 41.1737 16.6171C41.1053 16.3132 40.9732 15.9339 40.7774 15.4792L39.3033 12.1717C38.848 12.1552 38.2442 12.1481 37.4895 12.1481C36.7347 12.1481 35.9186 12.1481 35.0435 12.1481C34.402 12.1481 33.784 12.1481 33.1873 12.1481C32.5905 12.1481 32.0528 12.1552 31.5739 12.1717L30.1753 15.3803C30.0526 15.6795 29.9229 16.0093 29.7861 16.365C29.6469 16.7207 29.5785 17.0812 29.5785 17.4463C29.5785 17.5523 29.5856 17.6395 29.6021 17.7078C29.6186 17.7761 29.6351 17.8233 29.6516 17.8468V17.901H27.168V17.8515C27.3142 17.6984 27.4958 17.4251 27.7152 17.0317C27.9345 16.6383 28.1728 16.1459 28.4322 15.5546L35.4068 0.100586H36.3809L42.9899 14.9586C43.1432 15.3073 43.3036 15.6465 43.471 15.974C43.6385 16.3014 43.7942 16.5959 43.9404 16.855C44.0866 17.1142 44.2164 17.3333 44.3296 17.5123C44.4428 17.6913 44.5206 17.8044 44.5607 17.8539V17.901H41.2279ZM33.3382 11.1045C33.81 11.1045 34.2911 11.1022 34.7864 11.0975C35.2818 11.0927 35.7676 11.0904 36.2417 11.0857C36.7158 11.081 37.1734 11.0786 37.6121 11.0739C38.0508 11.0692 38.4471 11.0645 38.8056 11.055L35.3855 3.3351L32.0268 11.1045H33.3382Z" fill="#191919"/>
<path d="M60.1295 9.55847C59.804 9.5514 59.3983 9.54434 58.9124 9.53963C58.4265 9.53492 57.8958 9.5302 57.325 9.52078C56.7519 9.51371 56.1551 9.50665 55.5348 9.50193C54.9145 9.49722 54.3059 9.49486 53.7139 9.49015C53.1219 9.48544 52.5582 9.48779 52.0228 9.49722C51.4874 9.50664 51.0203 9.51842 50.6217 9.53491V13.1464C50.6217 13.8342 50.6312 14.4373 50.6524 14.9509C50.6713 15.4668 50.6972 15.9097 50.7255 16.2819C50.7538 16.6541 50.7892 16.9675 50.834 17.2172C50.8788 17.4692 50.926 17.6789 50.9732 17.8485V17.9004H48.0508V17.8509C48.1003 17.6813 48.1451 17.4692 48.1899 17.2195C48.2348 16.9675 48.2725 16.6565 48.3055 16.2843C48.3385 15.9121 48.3621 15.4668 48.3786 14.9532C48.3951 14.4397 48.4022 13.8366 48.4022 13.1487V5.23323C48.4022 4.54534 48.3928 3.94225 48.3786 3.42869C48.3621 2.91512 48.3385 2.46752 48.3055 2.09059C48.2725 1.71367 48.2348 1.40035 48.1899 1.14828C48.1451 0.896205 48.098 0.686533 48.0508 0.516916V0.467446H50.9732V0.516916C50.9236 0.686533 50.8788 0.898561 50.834 1.14828C50.7892 1.40035 50.7538 1.71367 50.7255 2.09059C50.6972 2.46752 50.6736 2.91277 50.6524 3.42869C50.6312 3.94225 50.6217 4.54534 50.6217 5.23323V8.34524C51.0439 8.36173 51.5227 8.37115 52.0581 8.37586C52.5936 8.38057 53.1526 8.38057 53.7375 8.37586C54.3225 8.37115 54.9168 8.36644 55.5207 8.35701C56.1245 8.34994 56.7094 8.33816 57.2731 8.32639C57.8369 8.31461 58.3652 8.30047 58.8558 8.28398C59.3464 8.26749 59.771 8.251 60.1271 8.23451V5.23087C60.1271 4.54298 60.1177 3.93989 60.0965 3.42633C60.0752 2.91276 60.0516 2.46516 60.0233 2.08824C59.995 1.71131 59.9573 1.39799 59.9148 1.14592C59.87 0.893847 59.8229 0.684182 59.7757 0.514565V0.465088H62.6981V0.514565C62.6485 0.684182 62.6037 0.896202 62.5589 1.14592C62.5141 1.39799 62.4763 1.71131 62.4433 2.08824C62.4103 2.46516 62.3867 2.91041 62.3702 3.42633C62.3537 3.93989 62.3466 4.54298 62.3466 5.23087V13.1464C62.3466 13.8342 62.3537 14.4373 62.3702 14.9509C62.3867 15.4668 62.4103 15.9097 62.4433 16.2819C62.4763 16.6541 62.5141 16.9675 62.5589 17.2172C62.6037 17.4692 62.6509 17.6789 62.6981 17.8485V17.9004H59.7757V17.8509C59.8252 17.6813 59.87 17.4692 59.9148 17.2195C59.9597 16.9675 59.995 16.6565 60.0233 16.2843C60.0516 15.9121 60.0752 15.4668 60.0965 14.9532C60.1177 14.4397 60.1271 13.8366 60.1271 13.1487V9.55847H60.1295Z" fill="#191919"/>
<path d="M80.2474 17.901V17.8515C80.264 17.8115 80.2758 17.7502 80.2852 17.6701C80.2923 17.59 80.297 17.517 80.297 17.451C80.297 17.199 80.2616 16.921 80.1932 16.6171C80.1248 16.3132 79.9927 15.9339 79.7969 15.4792L78.3228 12.1717C77.8676 12.1552 77.2637 12.1481 76.509 12.1481C75.7542 12.1481 74.9381 12.1481 74.0631 12.1481C73.4215 12.1481 72.8035 12.1481 72.2068 12.1481C71.61 12.1481 71.0723 12.1552 70.5935 12.1717L69.1948 15.3803C69.0721 15.6795 68.9424 16.0093 68.8056 16.365C68.6664 16.7207 68.598 17.0812 68.598 17.4463C68.598 17.5523 68.6051 17.6395 68.6216 17.7078C68.6381 17.7761 68.6547 17.8233 68.6712 17.8468V17.901H66.1875V17.8515C66.3337 17.6984 66.5153 17.4251 66.7347 17.0317C66.9541 16.6383 67.1923 16.1459 67.4517 15.5546L74.4263 0.100586H75.4004L82.0094 14.9586C82.1627 15.3073 82.3231 15.6465 82.4905 15.974C82.658 16.3014 82.8137 16.5959 82.9599 16.855C83.1061 17.1142 83.2359 17.3333 83.3491 17.5123C83.4623 17.6913 83.5401 17.8044 83.5802 17.8539V17.901H80.2474ZM72.3601 11.1045C72.8318 11.1045 73.313 11.1022 73.8083 11.0975C74.3036 11.0927 74.7895 11.0904 75.2636 11.0857C75.7377 11.081 76.1953 11.0786 76.634 11.0739C77.0727 11.0692 77.4689 11.0645 77.8275 11.055L74.4074 3.3351L71.0487 11.1045H72.3601Z" fill="#191919"/>
<path d="M90.422 1.53566C89.4644 1.53566 88.6011 1.57807 87.8299 1.66288C87.0586 1.74768 86.3934 1.83956 85.8344 1.93615C85.1858 2.05865 84.6056 2.19057 84.0938 2.33663L84.4475 0.367188C84.5443 0.376611 84.6905 0.38368 84.8863 0.390747C85.082 0.397814 85.299 0.407232 85.5372 0.414299C85.7755 0.423722 86.0279 0.428438 86.292 0.43315C86.5562 0.437861 86.8062 0.440214 87.0397 0.444926C87.2732 0.449637 87.4831 0.451997 87.6671 0.456709C87.8487 0.461421 87.9808 0.463776 88.0634 0.463776H95.0143C95.0945 0.463776 95.2266 0.461421 95.4106 0.456709C95.5922 0.451997 95.8021 0.449637 96.038 0.444926C96.2739 0.440214 96.5239 0.437861 96.7857 0.43315C97.0499 0.428438 97.2999 0.423722 97.5405 0.414299C97.7787 0.407232 97.998 0.397814 98.1915 0.390747C98.3872 0.38368 98.5335 0.374255 98.6302 0.367188L98.984 2.33663C98.4651 2.19057 97.8801 2.05629 97.2315 1.93615C96.6725 1.83956 96.005 1.74768 95.236 1.66288C94.4648 1.57807 93.6015 1.53566 92.6439 1.53566V13.1474C92.6439 13.8353 92.6533 14.4384 92.6745 14.9519C92.6958 15.4678 92.7194 15.9107 92.7477 16.283C92.776 16.6552 92.8137 16.9685 92.8562 17.2182C92.901 17.4703 92.9481 17.6799 92.9953 17.8496V17.9014H90.0871V17.8519C90.1366 17.6823 90.1791 17.4703 90.2215 17.2206C90.2616 16.9685 90.2994 16.6575 90.33 16.2853C90.3631 15.9131 90.3866 15.4678 90.4032 14.9543C90.4197 14.4407 90.4267 13.8376 90.4267 13.1497V1.53566H90.422Z" fill="#191919"/>
</svg>
