<svg width="64" height="69" viewBox="0 0 64 69" fill="none" xmlns="http://www.w3.org/2000/svg">
<path d="M62.9587 40.4532C61.8713 40.5239 59.5952 40.4721 58.6423 40.6016C52.1136 41.4921 47.0071 45.9469 41.9784 49.8222C38.7989 52.2723 35.4095 54.4561 31.8173 56.2512C29.9846 57.1676 28.1024 57.9827 26.1778 58.6824C24.397 59.3302 22.3756 59.5823 20.675 60.3974C20.4203 60.5411 20.3377 60.6801 20.5972 60.7861C26.1188 63.05 32.6145 60.6259 37.622 58.1335C43.5847 55.1652 48.7407 51.0261 53.8896 46.8563C54.5217 46.3451 55.4015 46.2626 55.7058 47.1508C56.47 49.3817 53.3849 52.9767 52.1442 54.5951C50.4035 56.8684 48.368 58.9133 46.1131 60.6801C40.5609 65.0313 33.6877 67.5567 26.6589 68.0302C20.5429 68.4425 13.592 67.486 8.47133 63.884C2.98981 60.0276 -0.0387055 53.8671 0.253768 47.1696C0.638229 38.4343 6.61742 30.9947 13.4717 26.0994C16.9625 23.6069 20.8118 21.6587 24.2767 19.1238C27.5269 16.7445 31.3385 13.4629 28.5553 9.21299C26.7981 6.52974 23.6233 5.29294 20.4958 5.77588C17.5498 6.23055 15.0119 8.07985 12.2994 9.19886C11.5211 9.5216 10.5847 10.2213 9.92898 9.50747C9.37941 8.91381 10.429 8.445 10.7592 7.8325C10.8394 7.68172 10.7262 7.50033 10.554 7.49562C9.55867 7.46735 8.46189 8.37197 7.45003 8.03274C5.74236 7.46264 7.32974 5.36597 8.13876 4.76525C11.0375 2.63325 14.3845 1.31871 17.9767 0.988902C19.8802 0.814573 21.8025 0.906448 23.687 1.2127C26.9137 1.73804 29.7181 3.09263 31.8551 5.69107C33.6972 7.92908 34.5793 11.1754 34.1642 14.0377C33.7349 16.9965 31.947 19.2864 29.5271 20.9637C25.482 23.7718 21.2175 26.2619 17.2903 29.2373C14.2099 31.5695 9.09873 35.2186 9.45489 39.6334C9.6483 42.0316 11.7782 43.9445 14.1604 44.0482C15.2548 44.0953 16.2738 43.7914 17.1158 43.2401C19.0735 42.2696 20.826 40.4344 22.2813 39.1316C26.0929 35.7204 30.1167 32.4836 34.6619 30.1348C38.7046 28.0452 43.3252 26.6765 47.7972 27.5105C49.2525 27.779 50.7031 28.302 51.8116 29.282C52.1041 29.5412 52.3919 29.9181 52.2504 30.2833C52.1371 30.5801 51.7975 30.7073 51.4885 30.7874C50.17 31.1408 48.802 31.2845 47.4694 31.5813C38.5702 33.5413 32.6688 41.16 25.6117 46.2768C21.2081 49.4712 16.7691 51.1603 11.363 51.3959C10.9267 51.4148 10.5021 51.4831 10.1012 51.6692C10.6248 53.0473 12.3655 53.3536 13.6509 53.4832C19.2693 54.0485 24.8899 51.6598 29.4469 48.7221C34.0557 45.7538 37.6668 42.2012 42.2426 39.1858C46.349 36.4837 51.0805 33.9819 56.1704 34.5331C59.2485 34.8653 62.3431 37.287 63.3927 40.2082C63.362 40.1941 63.5318 40.4132 62.9587 40.4532Z" fill="#0A1445"/>
<path d="M7.89615 12.1219C6.5352 12.9393 5.34408 14.0018 3.91945 14.7439C3.50904 14.9582 3.03967 15.0784 2.61275 14.8334C2.19527 14.5931 2.85334 13.9123 3.04203 13.6908C3.99257 12.5648 5.18133 11.3562 5.70496 9.94275C5.81346 9.64828 5.93139 9.34674 6.1814 9.14414C6.85362 8.59995 7.7735 9.30198 8.21457 9.82261C8.46695 10.1218 8.60846 10.4917 8.56129 10.8851C8.51412 11.2644 8.23816 11.9169 7.89615 12.1219Z" fill="#FD730E"/>
</svg>
