<svg width="89" height="94" viewBox="0 0 89 94" fill="none" xmlns="http://www.w3.org/2000/svg">
<path d="M87.403 55.1477C85.8864 55.2467 82.7195 55.1735 81.3881 55.3543C72.2882 56.5986 65.1745 62.8072 58.1686 68.2106C53.7393 71.6249 49.0127 74.6689 44.0103 77.1747C41.4595 78.4534 38.8356 79.59 36.1512 80.5631C33.6694 81.4673 30.8516 81.8203 28.4818 82.9527C28.1242 83.155 28.0121 83.3445 28.3741 83.4951C36.0694 86.6511 45.1219 83.2713 52.0977 79.7967C60.4091 75.6591 67.5917 69.8897 74.7657 64.073C75.6446 63.3583 76.8726 63.2463 77.2948 64.4863C78.3591 67.5992 74.059 72.6108 72.3313 74.8626C69.9055 78.0315 67.0704 80.8817 63.9293 83.3445C56.1909 89.4109 46.617 92.9328 36.8191 93.5916C28.2965 94.1685 18.6106 92.8338 11.4754 87.8136C3.83613 82.436 -0.382065 73.8465 0.0272602 64.5079C0.561537 52.3276 8.89453 41.9556 18.4469 35.1314C23.3114 31.6568 28.6757 28.9401 33.5014 25.4052C38.0298 22.09 43.3424 17.5132 39.4646 11.5889C37.0173 7.84738 32.5923 6.12087 28.2319 6.79683C24.1257 7.42974 20.5883 10.0087 16.8096 11.5673C15.7238 12.0151 14.4226 12.9925 13.5048 11.9979C12.7379 11.1712 14.2028 10.5168 14.6595 9.6643C14.7716 9.45333 14.6122 9.19931 14.3752 9.195C12.9878 9.15625 11.4625 10.4178 10.0493 9.94416C7.66655 9.15195 9.88121 6.2242 11.0101 5.38893C15.0516 2.41383 19.7136 0.583986 24.7203 0.123297C27.3702 -0.122117 30.0502 0.0070464 32.6785 0.437597C37.1767 1.16953 41.0804 3.05965 44.062 6.68058C46.63 9.79777 47.8579 14.3272 47.2763 18.3184C46.6774 22.4431 44.1869 25.6334 40.8132 27.9756C35.1775 31.8893 29.2358 35.3639 23.7595 39.5101C19.468 42.765 12.3458 47.8498 12.8413 54.0067C13.1127 57.3478 16.0814 60.0172 19.3991 60.1636C20.9244 60.2282 22.3419 59.8062 23.5182 59.0399C26.2456 57.6879 28.6886 55.1262 30.7137 53.3135C36.0263 48.556 41.6319 44.0481 47.9657 40.7716C53.5971 37.8611 60.0386 35.9494 66.2689 37.1119C68.294 37.4865 70.3191 38.2184 71.8616 39.579C72.2709 39.9406 72.6673 40.4659 72.4734 40.974C72.314 41.3873 71.8401 41.5638 71.4135 41.6758C69.5737 42.1709 67.6693 42.3689 65.8122 42.7823C53.4118 45.5163 45.1866 56.138 35.3541 63.2722C29.2186 67.7241 23.0313 70.0792 15.4997 70.4064C14.8922 70.4322 14.2976 70.5313 13.7418 70.7896C14.47 72.7099 16.8957 73.1404 18.6882 73.3169C26.517 74.1048 34.3502 70.7724 40.7012 66.6821C47.1212 62.5402 52.1537 57.5889 58.5349 53.3867C64.2568 49.6194 70.8491 46.132 77.9411 46.8983C82.2283 47.3633 86.5456 50.7388 88.0062 54.8119C87.9675 54.786 88.2001 55.0917 87.403 55.1477Z" fill="#FCFAF8"/>
<path d="M10.6743 15.6486C8.7785 16.7852 7.11535 18.2706 5.13335 19.3039C4.5603 19.601 3.90969 19.7732 3.31078 19.4288C2.72911 19.093 3.64686 18.1457 3.90538 17.8357C5.22815 16.2642 6.88699 14.5808 7.61516 12.6089C7.76596 12.1998 7.92969 11.7779 8.27869 11.4937C9.21368 10.7317 10.4977 11.7133 11.1138 12.4409C11.4671 12.8586 11.661 13.3752 11.5964 13.922C11.5317 14.4516 11.1483 15.3644 10.6743 15.6486Z" fill="#E47E46"/>
</svg>
