<svg id="Out_line" height="512" viewBox="0 0 512 512" width="512" xmlns="http://www.w3.org/2000/svg" data-name="Out line"><circle cx="48" cy="288" r="8"/><circle cx="72" cy="288" r="8"/><circle cx="96" cy="288" r="8"/><path d="m192 264h48v16h-48z"/><path d="m192 296h48v16h-48z"/><circle cx="48" cy="176" r="8"/><circle cx="72" cy="176" r="8"/><circle cx="96" cy="176" r="8"/><path d="m192 152h48v16h-48z"/><path d="m192 184h48v16h-48z"/><path d="m240 16h-192a32.036 32.036 0 0 0 -32 32v32a32.05717 32.05717 0 0 0 24 30.98743v18.02514a32.05717 32.05717 0 0 0 -24 30.98743v32a32.05717 32.05717 0 0 0 24 30.98743v18.02514a32.05717 32.05717 0 0 0 -24 30.98743v32a32.05717 32.05717 0 0 0 24 30.98743v25.01257a7.99977 7.99977 0 0 0 8 8h32a7.99977 7.99977 0 0 0 8-8v-24h112v24a7.99977 7.99977 0 0 0 8 8h32a7.99977 7.99977 0 0 0 8-8v-25.01257a32.05717 32.05717 0 0 0 24-30.98743v-32a32.05717 32.05717 0 0 0 -24-30.98743v-18.02514a32.05717 32.05717 0 0 0 24-30.98743v-32a32.05717 32.05717 0 0 0 -24-30.98743v-18.02514a32.05717 32.05717 0 0 0 24-30.98743v-32a32.036 32.036 0 0 0 -32-32zm-24 112v-16h16v16zm-16 0h-112v-16h112zm-128 0h-16v-16h16zm144 112v-16h16v16zm-16 0h-112v-16h112zm-128 0h-16v-16h16zm0 112h-16v-16h16zm144 0v-16h16v16zm40-80v32a16.01833 16.01833 0 0 1 -16 16h-192a16.01833 16.01833 0 0 1 -16-16v-32a16.01833 16.01833 0 0 1 16-16h192a16.01833 16.01833 0 0 1 16 16zm0-112v32a16.01833 16.01833 0 0 1 -16 16h-192a16.01833 16.01833 0 0 1 -16-16v-32a16.01833 16.01833 0 0 1 16-16h192a16.01833 16.01833 0 0 1 16 16zm0-80a16.01833 16.01833 0 0 1 -16 16h-192a16.01833 16.01833 0 0 1 -16-16v-32a16.01833 16.01833 0 0 1 16-16h192a16.01833 16.01833 0 0 1 16 16z"/><circle cx="48" cy="64" r="8"/><circle cx="72" cy="64" r="8"/><circle cx="96" cy="64" r="8"/><path d="m192 40h48v16h-48z"/><path d="m192 72h48v16h-48z"/><path d="m288 64v16h24v368a7.99977 7.99977 0 0 0 8 8h32v-16h-24v-176h24v-16h-24v-168h24v-16z"/><path d="m464 16h-64a32.036 32.036 0 0 0 -32 32v48a32.036 32.036 0 0 0 32 32h64a32.036 32.036 0 0 0 32-32v-48a32.036 32.036 0 0 0 -32-32zm16 32v4.305a31.79288 31.79288 0 0 0 -16-4.305h-17.167a15.91285 15.91285 0 0 1 -14.311-8.84521l-2.7334-5.46534c-.28857-.577-.60058-1.136-.91919-1.68945h35.13059a16.01833 16.01833 0 0 1 16 16zm0 48a16.01833 16.01833 0 0 1 -16 16h-64a16.01833 16.01833 0 0 1 -16-16v-48a16.01833 16.01833 0 0 1 16-16h1.167a15.91285 15.91285 0 0 1 14.311 8.84521l2.7334 5.46534a31.8258 31.8258 0 0 0 28.6216 17.68945h17.167a16.01833 16.01833 0 0 1 16 16z"/><path d="m464 199.875h-64a32.036 32.036 0 0 0 -32 32v48a32.036 32.036 0 0 0 32 32h64a32.036 32.036 0 0 0 32-32v-48a32.036 32.036 0 0 0 -32-32zm16 32v4.305a31.79288 31.79288 0 0 0 -16-4.305h-17.167a15.91285 15.91285 0 0 1 -14.311-8.84521l-2.7334-5.46534c-.28857-.577-.60058-1.136-.91919-1.68945h35.13059a16.01833 16.01833 0 0 1 16 16zm0 48a16.01833 16.01833 0 0 1 -16 16h-64a16.01833 16.01833 0 0 1 -16-16v-48a16.01833 16.01833 0 0 1 16-16h1.167a15.91285 15.91285 0 0 1 14.311 8.84521l2.7334 5.46534a31.8258 31.8258 0 0 0 28.6216 17.68945h17.167a16.01833 16.01833 0 0 1 16 16z"/><path d="m464 383.75h-64a32.036 32.036 0 0 0 -32 32v48a32.036 32.036 0 0 0 32 32h64a32.036 32.036 0 0 0 32-32v-48a32.036 32.036 0 0 0 -32-32zm16 32v4.305a31.79288 31.79288 0 0 0 -16-4.305h-17.167a15.91285 15.91285 0 0 1 -14.311-8.84521l-2.7334-5.46534c-.28857-.577-.60058-1.136-.91919-1.68945h35.13059a16.01833 16.01833 0 0 1 16 16zm0 48a16.01833 16.01833 0 0 1 -16 16h-64a16.01833 16.01833 0 0 1 -16-16v-48a16.01833 16.01833 0 0 1 16-16h1.167a15.91285 15.91285 0 0 1 14.311 8.84521l2.7334 5.46534a31.8258 31.8258 0 0 0 28.6216 17.68945h17.167a16.01833 16.01833 0 0 1 16 16z"/></svg>