<svg width="24" height="24" viewBox="0 0 24 24" fill="none" xmlns="http://www.w3.org/2000/svg">
<path d="M9.88523 14.1328C9.25227 14.3198 8.58077 14.4203 7.88517 14.4203C4.08259 14.4203 1 11.4161 1 7.71016C1 6.67423 1.24087 5.69313 1.67101 4.81715L6.67997 9.6988L9.92567 6.5356L4.91671 1.65395C5.81553 1.23475 6.82222 1 7.88517 1C11.6877 1 14.7703 4.00424 14.7703 7.71016C14.7703 8.69478 14.5527 9.62986 14.1618 10.4722L22.3278 18.4306C23.2241 19.3041 23.2241 20.7203 22.3278 21.5938L21.5571 22.3449C20.6609 23.2184 19.2077 23.2184 18.3114 22.3449L9.88523 14.1328Z" stroke="#FDFAF7" stroke-opacity="0.6" stroke-width="2" stroke-linecap="round"/>
</svg>
