<svg width="48" height="48" viewBox="0 0 48 48" fill="none" xmlns="http://www.w3.org/2000/svg">
<path d="M33.75 18H35.25V9H42.75V19.5H44.25V8.25C44.25 8.05109 44.171 7.86032 44.0303 7.71967C43.8897 7.57902 43.6989 7.5 43.5 7.5H42.75V5.25C42.75 5.05109 42.671 4.86032 42.5303 4.71967C42.3897 4.57902 42.1989 4.5 42 4.5H35.25V2.25C35.25 2.05109 35.171 1.86032 35.0303 1.71967C34.8897 1.57902 34.6989 1.5 34.5 1.5H18V3H33.75V18ZM35.25 6H41.25V7.5H35.25V6ZM5.25 9H12.75V18.75H14.25V3H16.5V1.5H13.5C13.3011 1.5 13.1103 1.57902 12.9697 1.71967C12.829 1.86032 12.75 2.05109 12.75 2.25V4.5H6C5.80109 4.5 5.61032 4.57902 5.46967 4.71967C5.32902 4.86032 5.25 5.05109 5.25 5.25V7.5H4.5C4.30109 7.5 4.11032 7.57902 3.96967 7.71967C3.82902 7.86032 3.75 8.05109 3.75 8.25V20.25H5.25V9ZM6.75 6H12.75V7.5H6.75V6ZM26.25 5.25C26.25 5.05109 26.171 4.86032 26.0303 4.71967C25.8897 4.57902 25.6989 4.5 25.5 4.5H22.5C22.3011 4.5 22.1103 4.57902 21.9697 4.71967C21.829 4.86032 21.75 5.05109 21.75 5.25V8.25C21.75 8.44891 21.829 8.63968 21.9697 8.78033C22.1103 8.92098 22.3011 9 22.5 9H25.5C25.6989 9 25.8897 8.92098 26.0303 8.78033C26.171 8.63968 26.25 8.44891 26.25 8.25V5.25ZM24.75 7.5H23.25V6H24.75V7.5ZM32.25 5.25C32.25 5.05109 32.171 4.86032 32.0303 4.71967C31.8897 4.57902 31.6989 4.5 31.5 4.5H28.5C28.3011 4.5 28.1103 4.57902 27.9697 4.71967C27.829 4.86032 27.75 5.05109 27.75 5.25V8.25C27.75 8.44891 27.829 8.63968 27.9697 8.78033C28.1103 8.92098 28.3011 9 28.5 9H31.5C31.6989 9 31.8897 8.92098 32.0303 8.78033C32.171 8.63968 32.25 8.44891 32.25 8.25V5.25ZM30.75 7.5H29.25V6H30.75V7.5ZM20.25 5.25C20.25 5.05109 20.171 4.86032 20.0303 4.71967C19.8897 4.57902 19.6989 4.5 19.5 4.5H16.5C16.3011 4.5 16.1103 4.57902 15.9697 4.71967C15.829 4.86032 15.75 5.05109 15.75 5.25V8.25C15.75 8.44891 15.829 8.63968 15.9697 8.78033C16.1103 8.92098 16.3011 9 16.5 9H19.5C19.6989 9 19.8897 8.92098 20.0303 8.78033C20.171 8.63968 20.25 8.44891 20.25 8.25V5.25ZM18.75 7.5H17.25V6H18.75V7.5ZM26.25 11.25C26.25 11.0511 26.171 10.8603 26.0303 10.7197C25.8897 10.579 25.6989 10.5 25.5 10.5H22.5C22.3011 10.5 22.1103 10.579 21.9697 10.7197C21.829 10.8603 21.75 11.0511 21.75 11.25V14.25C21.75 14.4489 21.829 14.6397 21.9697 14.7803C22.1103 14.921 22.3011 15 22.5 15H25.5C25.6989 15 25.8897 14.921 26.0303 14.7803C26.171 14.6397 26.25 14.4489 26.25 14.25V11.25ZM24.75 13.5H23.25V12H24.75V13.5ZM32.25 11.25C32.25 11.0511 32.171 10.8603 32.0303 10.7197C31.8897 10.579 31.6989 10.5 31.5 10.5H28.5C28.3011 10.5 28.1103 10.579 27.9697 10.7197C27.829 10.8603 27.75 11.0511 27.75 11.25V14.25C27.75 14.4489 27.829 14.6397 27.9697 14.7803C28.1103 14.921 28.3011 15 28.5 15H31.5C31.6989 15 31.8897 14.921 32.0303 14.7803C32.171 14.6397 32.25 14.4489 32.25 14.25V11.25ZM30.75 13.5H29.25V12H30.75V13.5ZM20.25 11.25C20.25 11.0511 20.171 10.8603 20.0303 10.7197C19.8897 10.579 19.6989 10.5 19.5 10.5H16.5C16.3011 10.5 16.1103 10.579 15.9697 10.7197C15.829 10.8603 15.75 11.0511 15.75 11.25V14.25C15.75 14.4489 15.829 14.6397 15.9697 14.7803C16.1103 14.921 16.3011 15 16.5 15H19.5C19.6989 15 19.8897 14.921 20.0303 14.7803C20.171 14.6397 20.25 14.4489 20.25 14.25V11.25ZM18.75 13.5H17.25V12H18.75V13.5ZM26.25 17.25V18H21.75V17.25C21.75 17.0511 21.829 16.8603 21.9697 16.7197C22.1103 16.579 22.3011 16.5 22.5 16.5H25.5C25.6989 16.5 25.8897 16.579 26.0303 16.7197C26.171 16.8603 26.25 17.0511 26.25 17.25ZM32.25 17.25V18H27.75V17.25C27.75 17.0511 27.829 16.8603 27.9697 16.7197C28.1103 16.579 28.3011 16.5 28.5 16.5H31.5C31.6989 16.5 31.8897 16.579 32.0303 16.7197C32.171 16.8603 32.25 17.0511 32.25 17.25ZM20.25 17.25V18H15.75V17.25C15.75 17.0511 15.829 16.8603 15.9697 16.7197C16.1103 16.579 16.3011 16.5 16.5 16.5H19.5C19.6989 16.5 19.8897 16.579 20.0303 16.7197C20.171 16.8603 20.25 17.0511 20.25 17.25ZM11.25 11.25C11.25 11.0511 11.171 10.8603 11.0303 10.7197C10.8897 10.579 10.6989 10.5 10.5 10.5H7.5C7.30109 10.5 7.11032 10.579 6.96967 10.7197C6.82902 10.8603 6.75 11.0511 6.75 11.25V14.25C6.75 14.4489 6.82902 14.6397 6.96967 14.7803C7.11032 14.921 7.30109 15 7.5 15H10.5C10.6989 15 10.8897 14.921 11.0303 14.7803C11.171 14.6397 11.25 14.4489 11.25 14.25V11.25ZM9.75 13.5H8.25V12H9.75V13.5ZM11.25 17.25V18H6.75V17.25C6.75 17.0511 6.82902 16.8603 6.96967 16.7197C7.11032 16.579 7.30109 16.5 7.5 16.5H10.5C10.6989 16.5 10.8897 16.579 11.0303 16.7197C11.171 16.8603 11.25 17.0511 11.25 17.25ZM41.25 11.25C41.25 11.0511 41.171 10.8603 41.0303 10.7197C40.8897 10.579 40.6989 10.5 40.5 10.5H37.5C37.3011 10.5 37.1103 10.579 36.9697 10.7197C36.829 10.8603 36.75 11.0511 36.75 11.25V14.25C36.75 14.4489 36.829 14.6397 36.9697 14.7803C37.1103 14.921 37.3011 15 37.5 15H40.5C40.6989 15 40.8897 14.921 41.0303 14.7803C41.171 14.6397 41.25 14.4489 41.25 14.25V11.25ZM39.75 13.5H38.25V12H39.75V13.5ZM41.25 17.25V18H36.75V17.25C36.75 17.0511 36.829 16.8603 36.9697 16.7197C37.1103 16.579 37.3011 16.5 37.5 16.5H40.5C40.6989 16.5 40.8897 16.579 41.0303 16.7197C41.171 16.8603 41.25 17.0511 41.25 17.25ZM8.26378 30.75H9.76378C9.76378 30.9489 9.8428 31.1397 9.98345 31.2803C10.1241 31.421 10.3149 31.5 10.5138 31.5C10.7127 31.5 10.9035 31.421 11.0441 31.2803C11.1848 31.1397 11.2638 30.9489 11.2638 30.75H12.7638C12.7638 31.3467 12.5267 31.919 12.1048 32.341C11.6828 32.7629 11.1105 33 10.5138 33C9.91704 33 9.34475 32.7629 8.92279 32.341C8.50083 31.919 8.26378 31.3467 8.26378 30.75ZM13.5138 29.25H12.0138V27.75H13.5138V29.25ZM35.25 31.5H36.75C36.75 31.6989 36.829 31.8897 36.9697 32.0303C37.1103 32.171 37.3011 32.25 37.5 32.25C37.6989 32.25 37.8897 32.171 38.0303 32.0303C38.171 31.8897 38.25 31.6989 38.25 31.5H39.75C39.75 32.0967 39.5129 32.669 39.091 33.091C38.669 33.5129 38.0967 33.75 37.5 33.75C36.9033 33.75 36.331 33.5129 35.909 33.091C35.4871 32.669 35.25 32.0967 35.25 31.5ZM2.25 46.5H45.75C45.9489 46.5 46.1397 46.421 46.2803 46.2803C46.421 46.1397 46.5 45.9489 46.5 45.75V41.25H45V45H43.5V39.75H42V41.25H39.75V42.75H42V45H38.25V39.9577L40.1747 36.75H42.75C43.3465 36.7507 43.9184 36.9879 44.3403 37.4097C44.7621 37.8316 44.9993 38.4035 45 39V39.75H46.5V39C46.4989 38.0058 46.1034 37.0526 45.4004 36.3496C44.6974 35.6466 43.7442 35.2511 42.75 35.25H41.4763C42.1166 34.6881 42.6296 33.996 42.981 33.22C43.3324 32.444 43.5142 31.6019 43.5141 30.75V28.6629C43.7463 28.452 43.9317 28.1948 44.0584 27.9078C44.1852 27.6209 44.2505 27.3105 44.25 26.9968C44.2496 26.6832 44.1834 26.373 44.0559 26.0864C43.9283 25.7998 43.7422 25.5431 43.5094 25.3328C43.5073 25.2953 43.5 23.25 43.5 23.25C43.4989 22.2558 43.1034 21.3026 42.4004 20.5996C41.6974 19.8966 40.7442 19.5011 39.75 19.5H35.25C34.2558 19.5011 33.3026 19.8966 32.5996 20.5996C31.8966 21.3026 31.5011 22.2558 31.5 23.25V25.3248C31.2629 25.5365 31.0734 25.7961 30.9441 26.0865C30.8148 26.3769 30.7486 26.6914 30.75 27.0093C30.7513 27.3272 30.8201 27.6411 30.9518 27.9305C31.0835 28.2198 31.2752 28.4778 31.5141 28.6875V30.75C31.514 31.6019 31.6957 32.444 32.0471 33.22C32.3985 33.996 32.9115 34.6881 33.5518 35.25C33.5518 35.25 31.7979 35.2727 31.5773 35.3127C30.916 34.786 30.0954 34.4994 29.25 34.5H27.9622C28.6026 33.9381 29.1156 33.246 29.467 32.47C29.8184 31.694 30.0001 30.8519 30 30V23.25C29.9989 22.2558 29.6034 21.3026 28.9004 20.5996C28.1974 19.8966 27.2442 19.5011 26.25 19.5H19.125C18.5283 19.5003 17.9495 19.704 17.484 20.0774C17.0186 20.4507 16.6942 20.9715 16.5644 21.554C16.4346 22.1364 16.5071 22.7456 16.7699 23.2813C17.0328 23.817 17.4703 24.2472 18.0104 24.5009C18.0037 24.5834 18 30 18 30C17.9999 30.8519 18.1816 31.694 18.533 32.47C18.8844 33.246 19.3974 33.9381 20.0378 34.5H18.75C18.2336 34.4997 17.7228 34.6066 17.25 34.8141V26.625C17.2501 25.1661 16.8024 23.7424 15.9673 22.5462C15.1323 21.3499 13.9501 20.4388 12.5807 19.936C11.2112 19.4332 9.72036 19.3629 8.30964 19.7346C6.89891 20.1063 5.63629 20.9021 4.69237 22.0145L5.83612 22.9855C6.58142 22.1077 7.57818 21.4797 8.69178 21.1864C9.80537 20.8931 10.9822 20.9486 12.0632 21.3455C13.1442 21.7423 14.0774 22.4614 14.7367 23.4055C15.396 24.3497 15.7497 25.4734 15.75 26.625L15.6034 27.1162L13.3357 24.2812C13.2654 24.1934 13.1763 24.1225 13.0749 24.0738C12.9735 24.0251 12.8625 23.9998 12.75 23.9998C12.6375 23.9998 12.5265 24.0251 12.4251 24.0738C12.3237 24.1225 12.2346 24.1934 12.1643 24.2812C10.3668 26.5381 7.75542 27.9995 4.89169 28.3513L4.5 28.4004V26.625C4.4999 25.7011 4.727 24.7913 5.16131 23.9758L3.83869 23.2687C3.28819 24.3018 3.00017 25.4544 3 26.625V35.2515C2.53526 35.6014 2.15794 36.0542 1.89768 36.5745C1.63742 37.0948 1.5013 37.6683 1.5 38.25V45.75C1.5 45.9489 1.57902 46.1397 1.71967 46.2803C1.86032 46.421 2.05109 46.5 2.25 46.5ZM37.5 38.2923L36.5746 36.75H38.4254L37.5 38.2923ZM33 23.25C33.0007 22.6535 33.2379 22.0816 33.6597 21.6597C34.0816 21.2379 34.6535 21.0007 35.25 21H39.75C40.3465 21.0007 40.9184 21.2379 41.3403 21.6597C41.7621 22.0816 41.9993 22.6535 42 23.25V24.75H33V23.25ZM32.25 27C32.2502 26.8012 32.3293 26.6105 32.4699 26.4699C32.6105 26.3293 32.8012 26.2502 33 26.25H42C42.1989 26.25 42.3897 26.329 42.5303 26.4697C42.671 26.6103 42.75 26.8011 42.75 27C42.75 27.1989 42.671 27.3897 42.5303 27.5303C42.3897 27.671 42.1989 27.75 42 27.75H41.5203C40.904 27.7499 40.2901 27.6744 39.6922 27.525C38.2528 27.1665 36.7474 27.1665 35.308 27.525C34.7101 27.6744 34.0962 27.7499 33.4799 27.75H33C32.8012 27.7498 32.6105 27.6707 32.4699 27.5301C32.3293 27.3895 32.2502 27.1988 32.25 27ZM33.0141 30.75V29.25H33.4797C33.8207 29.2497 34.1613 29.2301 34.5 29.1912V30H36V28.9068C36.99 28.7067 38.01 28.7067 39 28.9068V30H40.5V29.1912C40.8387 29.2301 41.1794 29.2497 41.5203 29.25H42C42.0047 29.25 42.0094 29.25 42.0141 29.25V30.75C42.0141 31.9435 41.54 33.0881 40.696 33.932C39.8521 34.7759 38.7075 35.25 37.5141 35.25C36.3206 35.25 35.176 34.7759 34.3321 33.932C33.4882 33.0881 33.0141 31.9435 33.0141 30.75ZM34.8253 36.75L36.75 39.9577V45H33V42.75H35.25V41.25H33V38.25C33.0003 37.7336 32.8934 37.2229 32.6859 36.75H34.8253ZM9.75 45H6.75V44.25C6.75 44.1336 6.72289 44.0187 6.67082 43.9146C6.61875 43.8104 6.54315 43.7199 6.45 43.65C6.16318 43.4349 5.92593 43.1607 5.75432 42.8459C5.58271 42.5311 5.48074 42.1831 5.45533 41.8255C5.42991 41.4679 5.48164 41.109 5.60701 40.7731C5.73237 40.4372 5.92845 40.1322 6.18197 39.8787L6.53034 39.5303L6.43584 39.4358L6.75 39.5406V40.5C6.75 40.6393 6.78879 40.7758 6.86201 40.8943C6.93523 41.0127 7.03999 41.1085 7.16456 41.1708L9.75 42.4635V45ZM7.73719 38.2885L6.47437 37.8675L7.3335 36.7219L8.96559 40.3941L8.25 40.0365V39C8.24999 38.8426 8.20046 38.6892 8.10843 38.5615C8.01639 38.4338 7.88651 38.3383 7.73719 38.2885ZM8.65406 36H12.3459L10.5 40.1531L8.65406 36ZM13.6665 36.7219L14.5256 37.8673L13.2628 38.2883C13.1135 38.3381 12.9836 38.4337 12.8915 38.5614C12.7995 38.6891 12.75 38.8426 12.75 39V40.0365L12.0344 40.3942L13.6665 36.7219ZM15 43.2141C14.8687 43.3775 14.7176 43.524 14.55 43.65C14.4569 43.7199 14.3813 43.8104 14.3292 43.9146C14.2771 44.0187 14.25 44.1336 14.25 44.25V45H11.25V42.4635L13.8354 41.1708C13.96 41.1085 14.0648 41.0127 14.138 40.8943C14.2112 40.7758 14.25 40.6393 14.25 40.5V39.5406L14.5642 39.4358L14.4697 39.5303L14.8184 39.8791C14.8825 39.9433 14.9431 40.011 15 40.0817V43.2141ZM24 44.6893L23.2852 43.9746L23.9954 37.5828C23.9984 37.5557 24 37.5285 24 37.5013C24 37.5285 24.0016 37.5557 24.0046 37.5828L24.7148 43.9746L24 44.6893ZM24.126 37.0839C24.0441 37.2067 24.0003 37.351 24 37.4986C23.9997 37.351 23.9559 37.2067 23.874 37.0839L23.1514 36H24.8483L24.126 37.0839ZM29.25 36C29.8465 36.0007 30.4184 36.238 30.8402 36.6598C31.262 37.0816 31.4993 37.6535 31.5 38.25V45H30V39H28.5V45H25.8106L26.0303 44.7803C26.1099 44.7008 26.1705 44.6044 26.2077 44.4983C26.2449 44.3921 26.2578 44.279 26.2454 44.1672L25.5256 37.6891L26.6513 36H29.25ZM18 22.125C18.0003 21.8267 18.119 21.5408 18.3299 21.3299C18.5408 21.119 18.8267 21.0003 19.125 21H26.25C26.8465 21.0007 27.4184 21.2379 27.8403 21.6597C28.2621 22.0816 28.4993 22.6535 28.5 23.25V25.0423L27.6431 23.6141C27.5765 23.5031 27.4822 23.4112 27.3695 23.3473C27.2568 23.2835 27.1295 23.25 27 23.25H19.125C18.8267 23.2497 18.5408 23.131 18.3299 22.9201C18.119 22.7092 18.0003 22.4233 18 22.125ZM19.5 30V24.75H26.5754L28.5 27.9578V30C28.5 31.1935 28.0259 32.3381 27.182 33.182C26.3381 34.0259 25.1935 34.5 24 34.5C22.8065 34.5 21.6619 34.0259 20.818 33.182C19.9741 32.3381 19.5 31.1935 19.5 30ZM16.5 38.25C16.5007 37.6535 16.738 37.0816 17.1598 36.6598C17.5816 36.238 18.1535 36.0007 18.75 36H21.3487L22.4744 37.6887L21.7546 44.1668C21.7422 44.2786 21.7551 44.3918 21.7923 44.4979C21.8295 44.604 21.8901 44.7004 21.9697 44.78L22.1894 45H19.5V39H18V45H16.5V38.25ZM15.752 36C15.6227 36.1723 15.5085 36.3554 15.4105 36.5473L15 36H15.752ZM15.75 32.925V34.5H14.4763C14.9865 34.0504 15.4171 33.518 15.75 32.925ZM6.01406 29.6867C6.56013 29.5769 7.09831 29.431 7.62506 29.25H9.01406V28.6781C10.4127 27.9991 11.6723 27.065 12.7283 25.9239L15.0141 28.7811V30C15.0141 31.1935 14.54 32.3381 13.696 33.182C12.8521 34.0259 11.7075 34.5 10.5141 34.5C9.32059 34.5 8.176 34.0259 7.33208 33.182C6.48817 32.3381 6.01406 31.1935 6.01406 30V29.6867ZM4.51406 29.9103V30C4.51396 30.8519 4.69568 31.694 5.04709 32.47C5.3985 33.246 5.9115 33.9381 6.55181 34.5H5.25C4.99808 34.5002 4.74682 34.5258 4.5 34.5762L4.51406 29.9103ZM3 38.25C2.99979 37.9545 3.05785 37.6618 3.17084 37.3887C3.28384 37.1156 3.44957 36.8675 3.65854 36.6585C3.86752 36.4496 4.11564 36.2838 4.38871 36.1708C4.66179 36.0578 4.95447 35.9998 5.25 36H6L4.65 37.8C4.5798 37.8935 4.53249 38.0022 4.51186 38.1173C4.49122 38.2324 4.49784 38.3508 4.53118 38.4629C4.56451 38.575 4.62365 38.6777 4.70383 38.7629C4.78402 38.848 4.88303 38.9131 4.99294 38.9531C4.7732 39.1948 4.58386 39.4624 4.42912 39.75H3V38.25ZM3 41.25H3.96956C3.90683 41.8698 3.98995 42.4956 4.21228 43.0776C4.43461 43.6595 4.78998 44.1813 5.25 44.6014V45H3V41.25ZM21.75 30H23.25C23.25 30.1989 23.329 30.3897 23.4697 30.5303C23.6103 30.671 23.8011 30.75 24 30.75C24.1989 30.75 24.3897 30.671 24.5303 30.5303C24.671 30.3897 24.75 30.1989 24.75 30H26.25C26.25 30.5967 26.0129 31.169 25.591 31.591C25.169 32.0129 24.5967 32.25 24 32.25C23.4033 32.25 22.831 32.0129 22.409 31.591C21.9871 31.169 21.75 30.5967 21.75 30ZM22.5 28.5H21V27H22.5V28.5ZM27 28.5H25.5V27H27V28.5Z" fill="#C65B80"/>
</svg>
