<svg width="48" height="48" viewBox="0 0 48 48" fill="none" xmlns="http://www.w3.org/2000/svg">
<path d="M44.9291 9.18694C44.9763 9.37091 45.0001 9.56008 45 9.75V33H3V9.75C3.00069 9.15348 3.23797 8.58158 3.65978 8.15978C4.08158 7.73797 4.65348 7.5007 5.25 7.5H6V31.5H7.5V5.25C7.50069 4.65348 7.73797 4.08158 8.15978 3.65978C8.58158 3.23797 9.15348 3.0007 9.75 3H38.25C38.4397 2.99987 38.6287 3.02368 38.8125 3.07088L39.1875 1.61831C38.8812 1.53956 38.5662 1.49981 38.25 1.5H9.75C8.75578 1.50112 7.8026 1.89656 7.09958 2.59958C6.39656 3.3026 6.00112 4.25578 6 5.25V6H5.25C4.25578 6.00112 3.3026 6.39656 2.59958 7.09958C1.89656 7.8026 1.50112 8.75578 1.5 9.75V36.75C1.50112 37.7442 1.89656 38.6974 2.59958 39.4004C3.3026 40.1034 4.25578 40.4989 5.25 40.5H19.1677L17.4802 45H15.75V46.5H32.25V45H30.5198L28.8323 40.5H42.75C43.7442 40.4989 44.6974 40.1034 45.4004 39.4004C46.1034 38.6974 46.4989 37.7442 46.5 36.75V9.75C46.5001 9.43396 46.4603 9.11916 46.3817 8.81306L44.9291 9.18694ZM28.9177 45H19.0823L20.7698 40.5H27.2302L28.9177 45ZM45 36.75C44.9993 37.3465 44.762 37.9184 44.3402 38.3402C43.9184 38.762 43.3465 38.9993 42.75 39H5.25C4.65348 38.9993 4.08158 38.762 3.65978 38.3402C3.23797 37.9184 3.00069 37.3465 3 36.75V34.5H45V36.75Z" fill="#572DB6"/>
<path d="M40.5 14.25H42V31.5H40.5V14.25Z" fill="#572DB6"/>
<path d="M9.75 4.5H11.25V6H9.75V4.5Z" fill="#572DB6"/>
<path d="M12.75 4.5H14.25V6H12.75V4.5Z" fill="#572DB6"/>
<path d="M15.75 4.5H17.25V6H15.75V4.5Z" fill="#572DB6"/>
<path d="M9 8.25V30.75C9 30.9489 9.07902 31.1397 9.21967 31.2803C9.36032 31.421 9.55109 31.5 9.75 31.5H38.25C38.4489 31.5 38.6397 31.421 38.7803 31.2803C38.921 31.1397 39 30.9489 39 30.75V18.75H37.5V23.6893L35.0303 21.2197L33.9697 22.2803L37.5 25.8107V30H10.5V25.9013L16.5 21.9014L18.3339 23.1241L19.1661 21.876L16.9161 20.376C16.7929 20.2938 16.6481 20.25 16.5 20.25C16.3519 20.25 16.2071 20.2938 16.0839 20.376L10.5 24.0986V9H31.5V7.5H9.75C9.55109 7.5 9.36032 7.57902 9.21967 7.71967C9.07902 7.86032 9 8.05109 9 8.25Z" fill="#572DB6"/>
<path d="M14.25 14.625C14.25 15.4408 14.4919 16.2384 14.9452 16.9167C15.3984 17.5951 16.0427 18.1238 16.7964 18.436C17.5502 18.7482 18.3796 18.8299 19.1797 18.6707C19.9799 18.5116 20.7149 18.1187 21.2918 17.5418C21.8687 16.9649 22.2616 16.2299 22.4207 15.4297C22.5799 14.6296 22.4982 13.8002 22.186 13.0464C21.8738 12.2927 21.3451 11.6484 20.6667 11.1952C19.9884 10.7419 19.1908 10.5 18.375 10.5C17.2814 10.5012 16.2329 10.9362 15.4595 11.7095C14.6862 12.4829 14.2512 13.5314 14.25 14.625ZM21 14.625C21 15.1442 20.846 15.6517 20.5576 16.0834C20.2692 16.5151 19.8592 16.8515 19.3795 17.0502C18.8999 17.2489 18.3721 17.3008 17.8629 17.1996C17.3537 17.0983 16.886 16.8483 16.5188 16.4812C16.1517 16.114 15.9017 15.6463 15.8004 15.1371C15.6992 14.6279 15.7511 14.1001 15.9498 13.6205C16.1485 13.1408 16.4849 12.7308 16.9166 12.4424C17.3483 12.154 17.8558 12 18.375 12C19.0709 12.0008 19.7382 12.2776 20.2303 12.7697C20.7224 13.2618 20.9992 13.9291 21 14.625Z" fill="#572DB6"/>
<path d="M25.7382 17.3908L23.6623 18.1696C22.4556 18.6186 21.4362 19.4626 20.77 20.5644C20.1038 21.6663 19.8299 22.9611 19.9929 24.2383C20.0623 24.7804 20.0062 25.3312 19.8289 25.8481C19.6515 26.365 19.3576 26.8343 18.97 27.2195C18.865 27.3244 18.7935 27.458 18.7645 27.6035C18.7355 27.749 18.7503 27.8998 18.807 28.0369C18.8637 28.174 18.9598 28.2912 19.0831 28.3736C19.2065 28.4561 19.3515 28.5001 19.4998 28.5001H24.6169C25.8936 28.5016 27.1341 28.0755 28.1404 27.2898C29.1467 26.5041 29.8609 25.404 30.1692 24.1651L30.6512 22.237C34.0903 20.2281 37.0815 17.5362 39.4405 14.3271L46.0235 5.39274C46.3702 4.92208 46.5367 4.34271 46.4927 3.75979C46.4488 3.17687 46.1973 2.62902 45.784 2.21566C45.3706 1.80231 44.8227 1.55085 44.2398 1.50691C43.6569 1.46298 43.0775 1.62948 42.6069 1.97621L33.673 8.55952C30.4506 10.9282 27.7497 13.9342 25.7382 17.3908ZM27.8185 16.8792L31.1205 20.1812C30.7924 20.3969 30.4597 20.6075 30.1209 20.8102L27.1894 17.8787C27.3922 17.5402 27.6019 17.2071 27.8185 16.8795V16.8792ZM20.9654 27.0001C21.4306 26.092 21.6104 25.0643 21.4811 24.0522C21.3658 23.1438 21.5496 22.2226 22.0045 21.4279L22.3367 21.4833C22.5922 21.5252 22.8244 21.6567 22.9918 21.8543C23.1591 22.0518 23.2506 22.3025 23.2499 22.5615C23.2493 23.1399 23.4423 23.7019 23.7983 24.1578C24.1543 24.6137 24.6527 24.9373 25.214 25.077L25.6866 25.1951C25.887 25.2459 26.069 25.3522 26.2116 25.5018C26.3543 25.6515 26.4517 25.8384 26.4928 26.041L26.5873 26.5126C25.98 26.8332 25.3035 27.0005 24.6167 27.0001H20.9654ZM27.8852 25.4526C27.7484 25.0357 27.5084 24.6601 27.1877 24.3606C26.8669 24.0612 26.4757 23.8476 26.0503 23.7397L25.5777 23.6215C25.3411 23.5626 25.131 23.4263 24.981 23.2341C24.8309 23.0419 24.7496 22.8051 24.7498 22.5613C24.7512 22.044 24.5972 21.5383 24.3078 21.1095C24.0185 20.6807 23.6071 20.3487 23.1269 20.1564C23.4513 19.9128 23.8088 19.7168 24.1887 19.5745L26.0609 18.8723L29.1693 21.9806L28.714 23.8017C28.5631 24.4065 28.28 24.9703 27.8852 25.4526ZM43.4967 3.18408C43.6785 3.05025 43.9022 2.986 44.1272 3.00299C44.3523 3.01998 44.5638 3.11708 44.7234 3.27668C44.883 3.43628 44.9801 3.6478 44.997 3.87286C45.014 4.09792 44.9497 4.3216 44.8159 4.50333L38.2329 13.4377C36.5854 15.679 34.6095 17.6591 32.3717 19.3113L28.6887 15.6283C30.3411 13.3905 32.3213 11.4146 34.5627 9.76702L43.4967 3.18408Z" fill="#572DB6"/>
<path d="M36.3387 12.1219L35.4387 10.9219C35.0023 11.2493 34.5708 11.5936 34.1562 11.9453L35.1266 13.0891C35.5181 12.757 35.9262 12.4313 36.3387 12.1219Z" fill="#572DB6"/>
<path d="M31.9106 16.3627C32.5732 15.5533 33.2853 14.7857 34.0428 14.0644L33.0084 12.978C32.2061 13.7423 31.4518 14.5554 30.75 15.4129L31.9106 16.3627Z" fill="#572DB6"/>
</svg>
