<svg width="48" height="48" viewBox="0 0 48 48" fill="none" xmlns="http://www.w3.org/2000/svg">
<g clip-path="url(#clip0)">
<path d="M7.50629 36.8635C7.20751 36.7471 6.86832 36.8125 6.63441 37.0319C6.56194 37.1082 6.50476 37.1977 6.46604 37.2956C6.42516 37.3919 6.40351 37.4953 6.40238 37.5999C6.40032 37.8127 6.48394 38.0174 6.63441 38.1678C6.78488 38.3183 6.98954 38.4019 7.20235 38.3999C7.30688 38.3986 7.4101 38.3768 7.50629 38.3358C7.6051 38.2989 7.69501 38.2417 7.77038 38.1679C8.07976 37.8525 8.07976 37.3474 7.77038 37.032C7.6951 36.9578 7.6052 36.9004 7.50629 36.8635Z" fill="#265610"/>
<path d="M9.83361 37.0317C9.52301 37.3448 9.52442 37.8501 9.83661 38.1616C10.1489 38.473 10.6542 38.473 10.9665 38.1616C11.2788 37.8501 11.2801 37.3448 10.9695 37.0317C10.6483 36.7368 10.1548 36.7368 9.83361 37.0317Z" fill="#265610"/>
<path d="M13.2965 36.8637C13.1987 36.9025 13.1091 36.9597 13.0328 37.0321C12.7234 37.3476 12.7234 37.8526 13.0328 38.1681C13.1092 38.2404 13.1988 38.2974 13.2965 38.3361C13.4903 38.4215 13.711 38.4215 13.9047 38.3361C14.0026 38.2973 14.0921 38.2403 14.1688 38.1681C14.4782 37.8526 14.4782 37.3476 14.1688 37.0321C13.9369 36.8083 13.5949 36.7423 13.2965 36.8637Z" fill="#265610"/>
<path d="M47.4398 7.72097C47.4336 7.70419 47.429 7.6875 47.4216 7.67119C45.905 3.09178 41.624 0 36.8 0C31.976 0 27.695 3.09188 26.1784 7.67138C26.1711 7.6875 26.1665 7.704 26.1603 7.72069C25.8777 8.58909 25.7032 9.48891 25.6405 10.4H13.4864C13.0993 8.8905 11.6792 7.88091 10.1263 8.01113C8.57344 8.14134 7.34137 9.37341 7.21116 10.9263C7.08094 12.4792 8.09053 13.8992 9.6 14.2863V25.5998H1.60003C0.716719 25.601 0.00103125 26.3167 0 27.2V39.9999C0.00103125 40.8832 0.716719 41.5989 1.60003 41.6H7.2V43.2H5.59997C4.27509 43.2014 3.20138 44.2751 3.19997 45.6V47.2C3.19987 47.4122 3.28416 47.6157 3.43425 47.7658C3.58425 47.9158 3.78778 48.0001 4.00003 48.0001H16.8C17.0122 48.0002 17.2157 47.9159 17.3658 47.7658C17.5158 47.6158 17.6001 47.4123 17.6001 47.2V45.6C17.5987 44.2751 16.5249 43.2014 15.2001 43.2H13.6V41.6H19.2C20.0832 41.5989 20.799 40.8832 20.8 39.9999V37.5999H33.7136C34.1007 39.1094 35.5208 40.119 37.0737 39.9888C38.6266 39.8586 39.8587 38.6265 39.9889 37.0736C40.1191 35.5207 39.1095 34.1007 37.6 33.7135V22.3595C42.1007 22.0322 45.9664 19.0384 47.4092 14.7627C47.414 14.7518 47.417 14.7408 47.4213 14.7297C48.1865 12.4572 48.193 9.99759 47.4398 7.72097ZM36 1.75069V7.2H32.4589C33.1223 4.40053 34.4451 2.29922 36 1.75069ZM32.4686 15.2398H36V20.6493C34.4525 20.1035 33.1352 18.0193 32.4686 15.2398ZM32.7041 19.8695C30.6792 18.9078 29.0525 17.2708 28.1035 15.2399H30.8214C31.1422 16.8908 31.7816 18.4632 32.7041 19.8695ZM32.17 13.6398C31.9451 12.0345 31.9433 10.4058 32.1648 8.79994H36V13.6398H32.17ZM32.7041 2.53059C31.7747 3.94847 31.1323 5.53491 30.8133 7.2H28.0843C29.0305 5.15091 30.6652 3.49856 32.7041 2.53059ZM27.5159 8.80003H30.5444C30.35 10.4076 30.3519 12.0328 30.5501 13.6399H27.5262C27.0948 12.0559 27.0912 10.3858 27.5159 8.80003ZM8.80003 11.2C8.80003 10.3163 9.51637 9.6 10.4001 9.6C11.2837 9.6 12 10.3163 12 11.2C12 12.0837 11.2837 12.8001 10.4 12.8001C9.51675 12.7989 8.80097 12.0833 8.80003 11.2ZM15.2 44.8C15.6416 44.8005 15.9996 45.1583 15.9999 45.6V46.4H4.8V45.6C4.80047 45.1583 5.15831 44.8004 5.59997 44.8H15.2ZM8.80003 43.2V41.6H12V43.2H8.80003ZM12.8 40H1.60003V27.2H19.2L19.2008 39.9999H12.8V40ZM33.7136 36H20.8V27.2C20.799 26.3167 20.0832 25.601 19.2 25.5999H11.2V14.2864C12.3201 13.9946 13.1947 13.1199 13.4864 12H25.6405C25.7049 12.929 25.8858 13.8461 26.1788 14.73C26.1831 14.741 26.1861 14.7518 26.1908 14.7625C27.6336 19.0382 31.4993 22.0321 36 22.3594V33.7135C34.88 34.0054 34.0054 34.88 33.7136 36ZM38.4 36.8C38.4 37.6837 37.6837 38.4 36.8 38.4C35.9163 38.4 35.1999 37.6837 35.1999 36.8C35.1999 35.9163 35.9163 35.1999 36.8 35.1999C37.6833 35.201 38.399 35.9167 38.4 36.8ZM45.5157 7.2H42.7868C42.4677 5.53491 41.8253 3.94847 40.8959 2.53059C42.9347 3.49856 44.5695 5.15091 45.5157 7.2ZM37.6 1.75069C39.155 2.29912 40.4778 4.40053 41.1413 7.19991H37.6V1.75069ZM37.6 8.80003H41.4352C41.6567 10.4059 41.6549 12.0346 41.43 13.6399H37.6V8.80003ZM37.6 20.6493V15.2398H41.1315C40.4649 18.0193 39.1475 20.1035 37.6 20.6493ZM40.8959 19.8694C41.8183 18.4632 42.4579 16.8907 42.7786 15.2398H45.4965C44.5476 17.2707 42.9208 18.9078 40.8959 19.8694ZM46.0738 13.6398H43.0499C43.2481 12.0327 43.2501 10.4075 43.0556 8.79994H46.0841C46.5087 10.3858 46.5053 12.0559 46.0738 13.6398Z" fill="#265610"/>
</g>
<defs>
<clipPath id="clip0">
<rect width="48" height="48" fill="white"/>
</clipPath>
</defs>
</svg>
