<svg width="48" height="48" viewBox="0 0 48 48" fill="none" xmlns="http://www.w3.org/2000/svg">
<path d="M25 28.0001H41.0001C41.5521 28.0001 42.0001 27.552 42.0001 27C42.0001 26.448 41.5521 26 41.0001 26H25C24.448 26 24 26.448 24 27C24 27.552 24.448 28.0001 25 28.0001Z" fill="#093650"/>
<path d="M48 19V15C48 14.034 47.712 13.14 47.236 12.374C47.224 12.35 47.2221 12.3219 47.208 12.3L41.024 2.35997C40.106 0.883969 38.518 0 36.778 0H11.224C9.48206 0 7.896 0.883969 6.978 2.35997L0.793969 12.3C0.781969 12.32 0.781969 12.342 0.769969 12.364C0.289969 13.13 0 14.03 0 15V19C0 20.64 0.805969 22.0881 2.03203 23.0001C0.805969 23.912 0 25.358 0 27V31C0 32.64 0.805969 34.0881 2.03203 35.0001C0.805969 35.912 0 37.358 0 39V43C0 45.756 2.244 48 4.99997 48H18.1119C18.6659 48 19.112 47.552 19.112 47C19.112 46.448 18.6639 45.9999 18.1119 45.9999H4.99997C3.34594 45.9999 1.99997 44.654 1.99997 42.9999V39C1.99997 37.344 3.34594 36 4.99997 36H21.728C22.28 36 22.728 35.552 22.728 35C22.728 34.448 22.28 33.9999 21.728 33.9999H4.99997C3.34594 33.9999 1.99997 32.654 1.99997 30.9999V27C1.99997 25.344 3.34594 24 4.99997 24H42.9999C44.654 24 45.9999 25.346 45.9999 27V31C45.9999 31.44 45.8919 31.882 45.6839 32.308C45.4419 32.8041 45.6459 33.402 46.1419 33.646C46.6399 33.8901 47.2379 33.6861 47.4799 33.1881C47.8259 32.4841 47.9999 31.75 47.9999 31V27C47.9999 25.36 47.1939 23.912 45.9679 23C47.194 22.086 48 20.64 48 19ZM8.676 3.41597C9.22603 2.52994 10.178 1.99997 11.222 1.99997H36.776C37.82 1.99997 38.772 2.52994 39.324 3.41597L43.45 10.046C43.3 10.0299 43.1541 9.99994 43 9.99994H4.99997C4.84594 9.99994 4.69997 10.0299 4.54997 10.0439L8.676 3.41597ZM46 19C46 20.6541 44.6541 22 43 22H4.99997C3.34594 22 1.99997 20.6541 1.99997 19V15C1.99997 13.344 3.34594 12 4.99997 12H42.9999C44.654 12 45.9999 13.344 45.9999 15V19H46Z" fill="#093650"/>
<path d="M4 41C4 42.654 5.34597 44 7 44C8.65403 44 10 42.654 10 41C10 39.346 8.65403 38 7 38C5.34597 38 4 39.344 4 41ZM7.99994 41C7.99994 41.552 7.55191 42 6.99991 42C6.44791 42 5.99997 41.552 5.99997 41C5.99997 40.448 6.448 40 7 40C7.552 40 7.99994 40.448 7.99994 41Z" fill="#093650"/>
<path d="M40.9999 34C40.8179 34 40.6359 34.0101 40.4579 34.026C38.7919 31.526 35.9939 30 32.9999 30C28.3439 30 24.502 33.554 24.046 38.092C21.7439 38.536 20 40.5681 20 43C20 45.756 22.244 48 25 48H41C44.86 48 47.9999 44.86 47.9999 41C47.9999 37.1399 44.86 34 40.9999 34ZM40.9999 46H25C23.3459 46 22 44.6541 22 43C22 41.346 23.3459 40 25 40C25.552 40 26 39.552 26 39C26 35.14 29.14 32 33 32C35.5001 32 37.83 33.378 39.0761 35.5959C39.2841 35.966 39.696 36.1619 40.1241 36.0899C40.4101 36.0399 40.7001 35.9999 41.0001 35.9999C43.7561 35.9999 46.0001 38.2439 46.0001 40.9999C46.0001 43.7558 43.756 46 40.9999 46Z" fill="#093650"/>
<path d="M41 14H25C24.448 14 24 14.448 24 15C24 15.552 24.448 16.0001 25 16.0001H41.0001C41.5521 16.0001 42.0001 15.552 42.0001 15C42.0001 14.448 41.552 14 41 14Z" fill="#093650"/>
<path d="M41 18H25C24.448 18 24 18.448 24 19C24 19.552 24.448 20.0001 25 20.0001H41.0001C41.5521 20.0001 42.0001 19.552 42.0001 19C42.0001 18.448 41.552 18 41 18Z" fill="#093650"/>
<path d="M7 14C5.34597 14 4 15.344 4 17C4 18.656 5.34597 20 7 20C8.65403 20 10 18.654 10 17C10 15.3461 8.65394 14 7 14ZM7 18C6.448 18 5.99997 17.552 5.99997 17C5.99997 16.448 6.448 16 7 16C7.552 16 8.00003 16.448 8.00003 17C8.00003 17.552 7.552 18 7 18Z" fill="#093650"/>
<path d="M4 29C4 30.654 5.34597 32 7 32C8.65403 32 10 30.654 10 29C10 27.346 8.65403 26 7 26C5.34597 26 4 27.344 4 29ZM7.99994 29C7.99994 29.552 7.55191 30 6.99991 30C6.44791 30 5.99997 29.552 5.99997 29C5.99997 28.448 6.448 28 7 28C7.552 28 7.99994 28.448 7.99994 29Z" fill="#093650"/>
</svg>
