<svg width="48" height="48" viewBox="0 0 48 48" fill="none" xmlns="http://www.w3.org/2000/svg">
<path d="M31.5 12.75C31.5 8.6145 28.1355 5.25 24 5.25C19.8645 5.25 16.5 8.6145 16.5 12.75C16.5 16.8855 19.8645 20.25 24 20.25C28.1355 20.25 31.5 16.8855 31.5 12.75ZM18 12.75C18 9.44175 20.6918 6.75 24 6.75C27.3082 6.75 30 9.44175 30 12.75C30 16.0582 27.3082 18.75 24 18.75C20.6918 18.75 18 16.0582 18 12.75Z" fill="#C96D1C"/>
<path d="M37.4925 27.2048L30.8557 26.2567L27 25.6147V24V22.9635L28.9807 21.9735L29.8342 22.8263C30.1275 23.1195 30.6015 23.1195 30.8948 22.8263L34.0763 19.644C34.3695 19.3507 34.3695 18.8767 34.0763 18.5835L33.2235 17.7308L34.2135 15.75H35.25C35.6647 15.75 36 15.414 36 15V10.5C36 10.086 35.6647 9.75 35.25 9.75H34.2135L33.2235 7.76925L34.0763 6.9165C34.3695 6.62325 34.3695 6.14925 34.0763 5.856L30.8948 2.67375C30.6015 2.3805 30.1275 2.3805 29.8342 2.67375L28.9807 3.5265L27 2.5365V1.5C27 1.086 26.6647 0.75 26.25 0.75H21.75C21.3352 0.75 21 1.086 21 1.5V2.5365L19.0192 3.5265L18.1658 2.67375C17.8725 2.3805 17.3985 2.3805 17.1052 2.67375L13.9238 5.856C13.6305 6.14925 13.6305 6.62325 13.9238 6.9165L14.7765 7.76925L13.7865 9.75H12.75C12.3352 9.75 12 10.086 12 10.5V15C12 15.414 12.3352 15.75 12.75 15.75H13.7865L14.7765 17.7308L13.9238 18.5835C13.6305 18.8767 13.6305 19.3507 13.9238 19.644L17.1052 22.8263C17.3985 23.1195 17.8725 23.1195 18.1658 22.8263L19.0192 21.9735L21 22.9635V24V25.6147L17.1435 26.2575L10.5068 27.2055C7.938 27.573 6 29.8072 6 32.403V46.5C6 46.9147 6.33525 47.25 6.75 47.25H41.25C41.6647 47.25 42 46.9147 42 46.5V32.403C42 29.8072 40.062 27.573 37.4925 27.2048ZM26.6632 37.2577L26.2762 31.836L27.6705 33.2302L26.6632 37.2577ZM25.4873 41.8485L24 44.823L22.5128 41.8485L23.1045 33.5618C23.379 33.6818 23.6812 33.75 24 33.75C24.3188 33.75 24.621 33.6818 24.8955 33.5618L25.4873 41.8485ZM20.3302 33.2302L21.7245 31.836L21.3375 37.2577L20.3302 33.2302ZM22.5 24.75H25.5V25.9395L24 27.4395L22.5 25.9395V24.75ZM23.25 30.3105L24 29.5605L24.75 30.3105V31.5C24.75 31.914 24.414 32.25 24 32.25C23.586 32.25 23.25 31.914 23.25 31.5V30.3105ZM28.2068 31.6455L25.0605 28.5L26.5072 27.0532L29.7278 27.5902L28.2068 31.6455ZM19.2067 20.3903C18.918 20.2463 18.57 20.3018 18.3412 20.5312L17.6362 21.2362L15.5153 19.1145L16.2195 18.4095C16.4482 18.1815 16.5045 17.8328 16.3605 17.544L14.9213 14.6655C14.7938 14.4105 14.5343 14.25 14.25 14.25H13.5V11.25H14.25C14.5343 11.25 14.7938 11.0895 14.9213 10.8352L16.3605 7.95675C16.5045 7.668 16.4482 7.31925 16.2195 7.09125L15.5153 6.38625L17.6362 4.2645L18.3412 4.9695C18.5708 5.19825 18.9195 5.2545 19.2067 5.1105L22.0853 3.67125C22.3395 3.54375 22.5 3.28425 22.5 3V2.25H25.5V3C25.5 3.28425 25.6605 3.54375 25.9148 3.67125L28.7932 5.1105C29.0812 5.25375 29.43 5.19825 29.6587 4.9695L30.3638 4.2645L32.4847 6.38625L31.7805 7.09125C31.5518 7.31925 31.4955 7.668 31.6395 7.95675L33.0788 10.8352C33.2062 11.0895 33.4657 11.25 33.75 11.25H34.5V14.25H33.75C33.4657 14.25 33.2062 14.4105 33.0788 14.6647L31.6395 17.5433C31.4955 17.832 31.5518 18.1807 31.7805 18.4088L32.4847 19.1138L30.3638 21.2355L29.6587 20.5305C29.43 20.3025 29.082 20.247 28.7932 20.3895L25.9148 21.8288C25.6605 21.9562 25.5 22.2157 25.5 22.5V23.25H22.5V22.5C22.5 22.2157 22.3395 21.9562 22.0853 21.8288L19.2067 20.3903ZM21.4928 27.0532L22.9395 28.5L19.7933 31.6455L18.273 27.5902L21.4928 27.0532ZM7.5 32.403C7.5 30.549 8.8845 28.9523 10.7198 28.6905L16.7595 27.828L18.7845 33.2288L21.0225 42.1823L21.0262 42.1815C21.0398 42.2347 21.0547 42.2873 21.0787 42.336L22.7865 45.75H13.5V34.5H12V45.75H7.5V32.403ZM40.5 45.75H35.25V34.5H33.75V45.75H25.2135L26.9205 42.3353C26.9453 42.2865 26.9603 42.2332 26.973 42.1808L26.9768 42.1815L29.2147 33.228L31.2397 27.8273L37.2795 28.6897C39.1147 28.9522 40.4993 30.549 40.4993 32.4022V45.75H40.5Z" fill="#C96D1C"/>
</svg>
