<svg width="48" height="48" viewBox="0 0 48 48" fill="none" xmlns="http://www.w3.org/2000/svg">
<g clip-path="url(#clip0)">
<path d="M44.895 0H3.105C1.39284 0 0 1.39284 0 3.105V5.10244C0 6.68194 1.18575 7.98872 2.71359 8.18194C2.25412 9.00656 2.00813 9.93825 2.00813 10.9042V32.0898C2.00813 35.1801 4.52175 37.6942 7.61156 37.6942H23.2969V38.7062C21.0523 39.0463 19.3266 40.9887 19.3266 43.3267C19.3266 45.9036 21.4231 48.0001 24 48.0001C26.5769 48.0001 28.6734 45.9036 28.6734 43.3267C28.6734 40.9887 26.9477 39.0463 24.7031 38.7062V37.6941H36.7359C37.1243 37.6941 37.4391 37.3792 37.4391 36.9909C37.4391 36.6026 37.1243 36.2878 36.7359 36.2878H7.61156C5.29716 36.2878 3.41437 34.4046 3.41437 32.0897V10.9041C3.41437 9.90938 3.76181 8.96287 4.3965 8.20744H43.6035C44.2382 8.96287 44.5856 9.90938 44.5856 10.9041V32.0897C44.5856 34.4045 42.7027 36.2878 40.3883 36.2878H39.5483C39.1599 36.2878 38.8452 36.6026 38.8452 36.9909C38.8452 37.3792 39.1599 37.6941 39.5483 37.6941H40.3883C43.4782 37.6941 45.9919 35.18 45.9919 32.0897V10.9041C45.9919 9.93816 45.7459 9.00656 45.2864 8.18184C46.8143 7.98863 48 6.68184 48 5.10234V3.105C48 1.39284 46.6072 0 44.895 0V0ZM27.2672 43.3266C27.2672 45.1281 25.8015 46.5938 24 46.5938C22.1985 46.5938 20.7328 45.1281 20.7328 43.3266C20.7328 41.5251 22.1985 40.0594 24 40.0594C25.8015 40.0594 27.2672 41.5251 27.2672 43.3266ZM46.5938 5.10244C46.5938 6.03919 45.8317 6.80119 44.895 6.80119H3.105C2.16834 6.80119 1.40625 6.03919 1.40625 5.10244V3.105C1.40625 2.16825 2.16834 1.40625 3.105 1.40625H44.895C45.8317 1.40625 46.5938 2.16825 46.5938 3.105V5.10244Z" fill="#BB8400"/>
<path d="M21.9961 43.3267C21.9961 44.4309 22.8944 45.3292 23.9986 45.3292C25.1028 45.3292 26.0011 44.4309 26.0011 43.3267C26.0011 42.2225 25.1028 41.3242 23.9986 41.3242C22.8944 41.3242 21.9961 42.2225 21.9961 43.3267ZM24.5949 43.3267C24.5949 43.6555 24.3273 43.923 23.9986 43.923C23.6699 43.923 23.4023 43.6555 23.4023 43.3267C23.4023 42.9979 23.6698 42.7305 23.9986 42.7305C24.3274 42.7305 24.5949 42.9979 24.5949 43.3267Z" fill="#BB8400"/>
<path d="M36.2969 12.8774H42.6937C43.0821 12.8774 43.3968 12.5626 43.3968 12.1743C43.3968 11.786 43.0821 11.4712 42.6937 11.4712H36.2969C35.9085 11.4712 35.5938 11.786 35.5938 12.1743C35.5938 12.5626 35.9085 12.8774 36.2969 12.8774Z" fill="#BB8400"/>
<path d="M42.6937 16.1001C43.0821 16.1001 43.3968 15.7853 43.3968 15.397C43.3968 15.0087 43.0821 14.6938 42.6937 14.6938H36.2969C35.9085 14.6938 35.5938 15.0087 35.5938 15.397C35.5938 15.7853 35.9085 16.1001 36.2969 16.1001H42.6937Z" fill="#BB8400"/>
<path d="M43.3991 18.6191C43.3991 18.2308 43.0844 17.916 42.696 17.916H38.1445C37.7561 17.916 37.4414 18.2308 37.4414 18.6191C37.4414 19.0075 37.7561 19.3223 38.1445 19.3223H42.696C43.0844 19.3223 43.3991 19.0075 43.3991 18.6191Z" fill="#BB8400"/>
<path d="M24.0359 10.2002H24.0003C17.2972 10.2002 11.8438 15.654 11.8438 22.3587C11.8447 29.0619 17.2981 34.5152 24.0003 34.5152C30.704 34.5152 36.1578 29.0614 36.1578 22.3577C36.1579 15.6749 30.7211 10.221 24.0359 10.2002ZM23.33 11.628L23.324 13.5985L22.0827 13.5949C22.082 13.5949 22.0729 13.5949 22.0722 13.5949C20.2855 13.5949 18.8269 15.0489 18.821 16.8362C18.8199 17.1709 18.8697 17.5002 18.9688 17.815C19.0634 18.115 19.3405 18.3069 19.6392 18.3069C19.7093 18.3069 19.7805 18.2964 19.8508 18.2742C20.2212 18.1575 20.4268 17.7626 20.31 17.3922C20.2544 17.2159 20.2266 17.0304 20.2273 16.841C20.2306 15.8265 21.0582 15.0011 22.0787 15.0011L24.023 15.0068H24.0251C24.4123 15.0068 24.727 14.6934 24.7282 14.3058L24.7363 11.6323C30.0874 11.9969 34.3798 16.3025 34.7281 21.6546H32.7574V20.4129C32.7574 19.5441 32.4193 18.7274 31.8054 18.1135C31.1913 17.4996 30.3747 17.1614 29.5059 17.1614C27.713 17.1614 26.2543 18.6201 26.2543 20.413V21.6547H24.7062L24.7133 19.4042C24.7146 19.0159 24.4008 18.7001 24.0126 18.6988L22.0658 18.6923C21.9696 18.6923 21.8726 18.6844 21.7775 18.6687C21.3943 18.6059 21.0327 18.8654 20.9698 19.2487C20.9068 19.6318 21.1664 19.9935 21.5497 20.0564C21.7198 20.0844 21.8935 20.0985 22.0634 20.0985L23.3049 20.1027L23.3 21.6548H21.0448C20.6565 21.6548 20.3417 21.9696 20.3417 22.3579V24.3026C20.3417 25.3202 19.5139 26.148 18.4963 26.148C18.0032 26.148 17.5396 25.9561 17.1913 25.6077C16.843 25.2594 16.6511 24.7958 16.6511 24.3026V22.3579C16.6511 21.9696 16.3362 21.6548 15.9479 21.6548H13.274C13.6227 16.2745 17.9461 11.961 23.33 11.628ZM13.2737 23.0607H15.2444V24.3024C15.2444 25.1711 15.5826 25.9878 16.1966 26.6019C16.8106 27.2158 17.6273 27.554 18.496 27.554C20.2889 27.554 21.7476 26.0953 21.7476 24.3024V23.0607H23.2973V25.3135C23.2973 25.7019 23.6121 26.0167 24.0004 26.0167H25.9453C26.9628 26.0167 27.7906 26.8449 27.7906 27.8628C27.7906 28.3559 27.5987 28.8194 27.2502 29.1678C26.9019 29.5162 26.4385 29.7081 25.9453 29.7081H24.0004C23.6121 29.7081 23.2973 30.0229 23.2973 30.4112V33.0852C17.9293 32.7369 13.6227 28.4303 13.2737 23.0607ZM24.7035 33.0853V31.1144H25.9453C26.8141 31.1144 27.6308 30.7763 28.2447 30.1623C28.8585 29.5483 29.1968 28.7317 29.1968 27.8629C29.1968 26.0695 27.7381 24.6105 25.9452 24.6105H24.7034V23.0608H26.9572C27.3456 23.0608 27.6603 22.746 27.6603 22.3577V20.4129C27.6603 19.3954 28.4881 18.5676 29.5056 18.5676C29.9988 18.5676 30.4623 18.7594 30.8107 19.1079C31.1591 19.4562 31.351 19.9197 31.351 20.4129V22.3577C31.351 22.746 31.6657 23.0608 32.0541 23.0608H34.728C34.3797 28.43 30.0727 32.7369 24.7035 33.0853Z" fill="#BB8400"/>
</g>
<defs>
<clipPath id="clip0">
<rect width="48" height="48" fill="white"/>
</clipPath>
</defs>
</svg>
