<svg width="196" height="117" viewBox="0 0 196 117" fill="none" xmlns="http://www.w3.org/2000/svg">
<rect width="86" height="8" rx="4" fill="#30314D"/>
<rect y="103" width="63" height="14" rx="7" fill="#E47E46"/>
<rect y="20" width="102" height="6" rx="3" fill="#7EA6D4"/>
<rect y="62" width="102" height="5" rx="2.5" fill="#7EA6D4"/>
<rect x="0.5" y="30.5" width="168" height="23" rx="3.5" fill="white" stroke="#E0E0E0"/>
<rect x="0.5" y="71.5" width="168" height="23" rx="3.5" fill="white" stroke="#E0E0E0"/>
<path d="M187.293 91.7071C187.683 92.0976 188.317 92.0976 188.707 91.7071L195.071 85.3432C195.462 84.9526 195.462 84.3195 195.071 83.9289C194.681 83.5384 194.047 83.5384 193.657 83.9289L188 89.5858L182.343 83.9289C181.953 83.5384 181.319 83.5384 180.929 83.9289C180.538 84.3195 180.538 84.9526 180.929 85.3432L187.293 91.7071ZM187 20L187 91L189 91L189 20L187 20Z" fill="#4F4F4F"/>
</svg>
